/* XPM */
static char *_80ffbff7f5b4d8fb658d1d25105ead60tKTyZU3Q2sxlZJp[] = {
/* columns rows colors chars-per-pixel */
"32 32 63 1 ",
"  c None",
". c black",
"X c #000101",
"o c #010101",
"O c #2A2A2A",
"+ c #8E0000",
"@ c #8F0007",
"# c #CF0000",
"$ c #D0000F",
"% c #E60000",
"& c #E70000",
"* c #E60002",
"= c #E6000E",
"- c #E6000F",
"; c #E60010",
": c #E60011",
"> c #E60012",
", c #E70012",
"< c #E60515",
"1 c #E60817",
"2 c #E62128",
"3 c #E6242A",
"4 c #E62A30",
"5 c #E62E33",
"6 c #E63136",
"7 c #E63237",
"8 c #E53D41",
"9 c #E54246",
"0 c #E54447",
"q c #E5474A",
"w c #E5595C",
"e c #E46B6D",
"r c #E46C6E",
"t c #E46D6E",
"y c #E46E6F",
"u c #E47B7C",
"i c #E47C7D",
"p c #898282",
"a c gray55",
"s c #8E8E8E",
"d c #929292",
"f c #AFAFAF",
"g c #E38889",
"h c #E38F90",
"j c #E39091",
"k c #C9BEBF",
"l c #E1BABA",
"z c #E1BCBC",
"x c gray78",
"c c gray82",
"v c #DFD3D3",
"b c #DFD4D4",
"n c #DEDBDB",
"m c #DEDCDC",
"M c gray87",
"N c #DEDFDF",
"B c #DFDFDF",
"V c #E0C4C5",
"C c #E0C6C6",
"Z c #E0D5D5",
"A c #DEE0E0",
"S c #DEE1E1",
"D c #DEE2E2",
/* pixels */
"                                ",
"                                ",
"                                ",
"                                ",
"             >>>>>>>            ",
"         ...@,>>>>>$...         ",
"         ...+&>>>&&#...         ",
"       MBO..pZ2>>gbk...xS       ",
"       MMdssfN3><gNcssscZ       ",
"      5SMMDZNM3>>jNMMMMMV&>     ",
"      5MMMSSMM3>>jNMMMMMV&>     ",
"      5SSMMMMS3>>jSMMMMMV&>     ",
"      1q0nMMz9<>>4qiSMSi8>>     ",
"      >>&MMSl&>>>>>ySSSt>>>     ",
"   >>>>>-ettw->>>>>7ttt6>>>>    ",
"   >>>>>>>>>>>>>>>>>>>>>>>>>    ",
"   >>>>>>>>>>>>>>>>>>>>>>>>>    ",
"   >>>>>>>>>>>>>>>>>>>>>>>>>    ",
"   >>>>>>>>>>>>>>>>>>>>>>>>>    ",
"   >>>>>>>>>>>>>>>>>>>>>>>>>    ",
"   >>>>>>>>>>>>>>>>>>>>>>>>>    ",
"   >>>>>>>>>>>>>>>>>>>>>>>>>    ",
"   >>>>>>>>>>>>>>>>>>>>>>>>>    ",
"   >>>>>>>>>>>>>>>>>>>>>>>>>    ",
"   >>>>>>>>>>>>>>>>>>>>>>>>>    ",
"   >>>>>>>  >>>>>>>> >>>>>>>    ",
"     >>>>     >>>>     >>>      ",
"      >>      >>>>     >>>      ",
"                         >      ",
"                                ",
"                                ",
"                                "
};
