/* XPM */
static char *e326cd48821a4ed48ec0e5089a560d3fMyRu1e56Nrn56X0w[] = {
/* columns rows colors chars-per-pixel */
"32 32 62 1 ",
"  c None",
". c black",
"X c #000306",
"o c #131313",
"O c #121518",
"+ c #002535",
"@ c #2F3438",
"# c gray21",
"$ c gray50",
"% c #046183",
"& c #06739B",
"* c #6D7881",
"= c #08ADE6",
"- c #0DADE5",
"; c #0EADE6",
": c #0EAEE7",
"> c #0EAEE8",
", c #12ADE6",
"< c #14ADE6",
"1 c #1FABE2",
"2 c #1FACE3",
"3 c #1AAEE6",
"4 c #1EAEE6",
"5 c #1FAEE6",
"6 c #20ACE3",
"7 c #20AEE6",
"8 c #21AEE6",
"9 c #23AEE6",
"0 c #26AEE6",
"q c #27AEE6",
"w c #2CAFE6",
"e c #30AFE6",
"r c #31AFE6",
"t c #34B0E6",
"y c #3AB0E6",
"u c #7ABCE4",
"i c #7EBDE4",
"p c #818D98",
"a c gray59",
"s c gray66",
"d c gray67",
"f c gray73",
"g c #84BEE4",
"h c #92C2E3",
"j c #96C3E3",
"k c #99C4E3",
"l c #9AC5E3",
"z c #AACAE2",
"x c #B1CCE1",
"c c #C1C1C1",
"v c #D9DCDE",
"b c #DEDEDD",
"n c #DDDEDE",
"m c gray87",
"M c #DFDEDE",
"N c #DFDFDF",
"B c #E0E0DF",
"V c #C0D1E0",
"C c #C0D2E0",
"Z c #C0D2E1",
"A c #C1D3E2",
"S c #C4D4E0",
/* pixels */
"                                ",
"                                ",
"                                ",
"             7777777            ",
"             7777777            ",
"         777777777777777        ",
"         777777777777777        ",
"       777777777777777777       ",
"      777777777777777777777     ",
"      777777777777777777777     ",
"      774ulll7777743jllg377     ",
"      7wwxmmmtq777tqvmmZq77     ",
"      =Smmmmmmh77rmmmmmmMy7     ",
"      =SmmmmmMh77rmmmmmmMy7     ",
"    77=SmmmmmMh74rmmmmmmMy777   ",
"    77=Smcsssmh77tmmdssfMy777   ",
"    77=Sma..omh77rmN#..$By777   ",
"    77,zZp..OZi77wZZ@..*Zt777   ",
"    777<:&..X:3777::+..%>7777   ",
"    7777761164777777111677777   ",
"    7777777777777777777777777   ",
"    7777777777777777777777777   ",
"    7777777777777777777777777   ",
"    7777777777777777777777777   ",
"    7777777777777777777777777   ",
"    7777777 77777777  7777777   ",
"      777     7777      777     ",
"      777     7777      777     ",
"                                ",
"                                ",
"                                ",
"                                "
};
