/* XPM */
static char *cc99ad62eaed4191efb4b0079bb3fec2DpphI8lRSTiSEAVw[] = {
/* columns rows colors chars-per-pixel */
"32 32 72 1 ",
"  c None",
". c black",
"X c #4F0002",
"o c #6A6A6A",
"O c gray42",
"+ c #A90000",
"@ c #A7000A",
"# c #B1000B",
"$ c #A9171C",
"% c #DB0010",
"& c #DB0011",
"* c #E60000",
"= c #E60002",
"- c #E60005",
"; c #E60008",
": c #E60009",
"> c #E6000B",
", c #E6000C",
"< c #E6000F",
"1 c #E10011",
"2 c #E60011",
"3 c #E60012",
"4 c #E70012",
"5 c #E60112",
"6 c #E80012",
"7 c #E61B23",
"8 c #E61C24",
"9 c #E6232A",
"0 c #E6242A",
"q c #E63438",
"w c #E54B4E",
"e c #E54C4F",
"r c #E54E51",
"t c #E46D6E",
"y c #E46D6F",
"u c #A49090",
"i c #A2A2A2",
"p c #B1B1B1",
"a c gray72",
"s c #B9B9B9",
"d c #E38889",
"f c #E38B8C",
"g c #E29B9B",
"h c #E29C9D",
"j c #E29D9E",
"k c #E29F9F",
"l c #E29FA0",
"z c #E2A0A1",
"x c #E2A3A4",
"c c #E2A5A6",
"v c #E2A6A6",
"b c #E2A8A9",
"n c #E1B0B0",
"m c #E1B4B5",
"M c #E1B7B7",
"N c #E1BBBC",
"B c gray80",
"V c #DFD1D1",
"C c #DFD6D6",
"Z c gray86",
"A c #DEDADA",
"S c #DEDBDB",
"D c #DBDDDD",
"F c gainsboro",
"G c #DDDDDD",
"H c gray87",
"J c #DFDFDF",
"K c #E0C3C3",
"L c #E0C4C5",
"P c #E0C5C5",
"I c #DEE0E0",
"U c gray88",
/* pixels */
"                                ",
"                                ",
"                                ",
"             333333             ",
"             3333333            ",
"         33333333333333         ",
"         33333333333333         ",
"       333-===3333333====       ",
"      333,dMMM733333=bMMb=3     ",
"      333,cJHH933333=CHHK=3     ",
"      33,gKHHHlkq33ekFHHVkk     ",
"      33=SHHHZZDe33yHHHHZZZ     ",
"      33=SHHa...%33yIHUO...     ",
"      33=SHHs...%33yIHUO...     ",
"   33333=SHHs...%33yIHUO..X6    ",
"   33333>zPHBi$@133rzSJpu+#3    ",
"   333333>vHHH033333=CHHP=33    ",
"   333333,fNNN833333=mNNv=33    ",
"   3333333====3333333====333    ",
"   3333333333333333333333333    ",
"   3333333333333333333333333    ",
"   3333333333333333333333333    ",
"   3333333333333333333333333    ",
"   3333333333333333333333333    ",
"   3333333333333333333333333    ",
"   3333333  33333333 3333333    ",
"     333      3333     333      ",
"      33      3333     333      ",
"                                ",
"                                ",
"                                ",
"                                "
};
