/* XPM */
static char *_c09bac7adef424ba561d40c21096b6fpvUye94AKOCRuQN9[] = {
/* columns rows colors chars-per-pixel */
"32 32 2 1 ",
"  c None",
". c #FFF100",
/* pixels */
"                                ",
"                                ",
"                                ",
"                                ",
"           ..........           ",
"           ..........           ",
"        ................        ",
"        ................        ",
"      ....................      ",
"      ....................      ",
"      ....................      ",
"    ........................    ",
"    ........................    ",
"    ........................    ",
"    ........................    ",
"    ........................    ",
"    ........................    ",
"    ........................    ",
"    ........................    ",
"    ........................    ",
"    ........................    ",
"      ....................      ",
"      ....................      ",
"      ....................      ",
"        ................        ",
"        ................        ",
"           ..........           ",
"           ..........           ",
"                                ",
"                                ",
"                                ",
"                                "
};
