/* XPM */
static char *f3a968ae3b93446fcce8eaa78fb70f19bmJS0qFrMNDmrP0b[] = {
/* columns rows colors chars-per-pixel */
"32 32 121 2 ",
"   c None",
".  c #001429",
"X  c #031434",
"o  c #05143C",
"O  c #00183F",
"+  c #061441",
"@  c #011841",
"#  c #03184C",
"$  c #051753",
"%  c #031A53",
"&  c #061858",
"*  c #09185E",
"=  c #0A1863",
"-  c #0D1769",
";  c #0D186C",
":  c #0F1871",
">  c #101875",
",  c #13187C",
"<  c #161884",
"1  c #19178C",
"2  c #17188A",
"3  c #18188C",
"4  c #013A92",
"5  c #053A9B",
"6  c #073BA2",
"7  c #0B3AA4",
"8  c #0D3AA8",
"9  c #113AAD",
"0  c #1439B3",
"q  c #173AB9",
"w  c #1B39BE",
"e  c #1F3AC4",
"r  c #233ACB",
"t  c #263AD0",
"y  c #2B3AD5",
"u  c #2E3AD9",
"i  c #333ADE",
"p  c #363AE1",
"a  c #1468C6",
"s  c #4FC5F0",
"d  c #54C7F1",
"f  c #56C7F1",
"g  c #57C7F2",
"h  c #54C5F1",
"j  c #51C5F1",
"k  c #59C4F2",
"l  c #58C5F2",
"z  c #58C5F3",
"x  c #5BC5F3",
"c  c #59C6F2",
"v  c #5BC6F3",
"b  c #5AC7F3",
"n  c #5BC7F3",
"m  c #5CC6F3",
"M  c #59C7F4",
"N  c #5CC4F4",
"B  c #5CC4F5",
"V  c #5CC5F5",
"C  c #5DC5F5",
"Z  c #5DC7F4",
"A  c #5CC6F5",
"S  c #5FC6F4",
"D  c #5EC5F6",
"F  c #5EC6F6",
"G  c #5FC6F6",
"H  c #52C8F1",
"J  c #53C8F1",
"K  c #53C9F1",
"L  c #53C8F2",
"P  c #54C9F0",
"I  c #55C9F0",
"U  c #54C8F1",
"Y  c #54C9F1",
"T  c #55C9F1",
"R  c #54C8F2",
"E  c #55C9F2",
"W  c #61C4F6",
"Q  c #60C5F6",
"!  c #61C6F6",
"~  c #60C7F6",
"^  c #61C7F6",
"/  c #63C6F7",
"(  c #63C7F7",
")  c #65C5F7",
"_  c #64C5F8",
"`  c #66C5F8",
"'  c #65C6F8",
"]  c #67C6F8",
"[  c #67C6F9",
"{  c #66C7F9",
"}  c #66C6FA",
"|  c #69C7F8",
" . c #68C7F9",
".. c #6AC5FA",
"X. c #6BC6FA",
"o. c #6DC7F9",
"O. c #6CC7FA",
"+. c #6FC6FA",
"@. c #6EC6FB",
"#. c #6FC6FB",
"$. c #74C6FB",
"%. c #75C7FB",
"&. c #77C6FB",
"*. c #73C5FC",
"=. c #78C6FC",
"-. c #79C6FC",
";. c #79C6FD",
":. c #7CC5FD",
">. c #7DC6FD",
",. c #7DC7FD",
"<. c #67D5F4",
"1. c #68D5F5",
"2. c #6AD6F6",
"3. c #6BD7F6",
"4. c #6DD7F6",
"5. c #6EDAF6",
"6. c #70DCF5",
"7. c #80C5FD",
"8. c #80C6FD",
"9. c #82C7FD",
"0. c #82C5FE",
/* pixels */
"  2.n C ! (  .+.-.9.9.-.+.} ( W N k h h j h s s s j j j j j <.  ",
"2.a 6 8 0 w r y i p p i y r w 0 8 5 5 5 4 4 4 4 4 4 4 4 4 4 a 2.",
"U 5 % % * - > , < 3 3 < < > ; * $ # @ O @ O O O @ @ @ @ @ % 5 z ",
"U 4 O . . X o o + + + X o X X X . . . . . . . . . . . . . # 7 k ",
"U 4 @ . . . . . . . . . . . . . . . . . . . . . . . . . . & 9 k ",
"U 4 @ . . . . . . . . . . . . . . . . . . . . . . . . . X = q _ ",
"U 4 @ . . . . . . . . . . . . . . . . . . . . . . . . . X ; e _ ",
"U 4 @ . . . . . . . . . . . . . . . . . . . . . . . . . o , t ..",
"U 4 O . . . . . . . . . . . . . . . . . . . . . . . . . o < u *.",
"U 4 @ . . . . . . . . . . . . . . . . . . . . . . . . . + 2 i :.",
"U 4 O . . . . . . . . . . . . . . . . . . . . . . . . . + 1 p 9.",
"U 4 @ . . . . . . . . . . . . . . . . . . . . . . . . . + 2 p :.",
"M 4 @ . . . . . . . . . . . . . . . . . . . . . . . . . o < u $.",
"Z 5 # . . . . . . . . . . . . . . . . . . . . . . . . . o , t +.",
"Z 7 # . . . . . . . . . . . . . . . . . . . . . . . . . X : e } ",
"^ 9 & X . . . . . . . . . . . . . . . . . . . . . . . . X = q ! ",
"( 0 = X . . . . . . . . . . . . . . . . . . . . . . . . . $ 9 ^ ",
"o.r : X . . . . . . . . . . . . . . . . . . . . . . . . . @ 5 m ",
"o.t > o . . . . . . . . . . . . . . . . . . . . . . . . . @ 5 m ",
"$.u , X . . . . . . . . . . . . . . . . . . . . . . . . . O 5 n ",
"8.i 1 + . . . . . . . . . . . . . . . . . . . . . . . . . @ 5 H ",
"8.i 1 + . . . . . . . . . . . . . . . . . . . . . . . . . @ 4 H ",
"8.i 1 + . . . . . . . . . . . . . . . . . . . . . . . . . O 4 H ",
"%.i < o . . . . . . . . . . . . . . . . . . . . . . . . . O 4 H ",
"o.t , o . . . . . . . . . . . . . . . . . . . . . . . . . @ 4 K ",
"( r > X . . . . . . . . . . . . . . . . . . . . . . . . . O 4 K ",
"^ q = X . . . . . . . . . . . . . . . . . . . . . . . . . @ 4 K ",
"S 9 $ . . . . . . . . . . . . . . . . . . . . . . . . . . O 4 P ",
"M 7 # . . . . . . . . . . . . . . X X o o + + + o o X . . @ 4 U ",
"n 5 % O O O O O O O O O @ @ # & = - > < 2 1 1 2 , > - * % % 5 U ",
"5.a 4 4 4 4 4 4 4 4 4 4 5 5 5 8 0 w r y i p i i y r w 0 8 6 a 5.",
"  3.s s s s s s s s s s s s z z C } } +.-.9.9.$.+.} ! ! M M 5.  "
};
